<?xml version="1.0" encoding="UTF-8"?>
<svg id="_レイヤー_2" data-name="レイヤー 2" xmlns="http://www.w3.org/2000/svg" viewBox="0 0 1206.2 737.1">
  <defs>
    <style>
      .cls-1 {
        fill: #fff;
      }

      .cls-2 {
        fill: #cd161e;
      }

      .cls-3 {
        fill: #298c3a;
      }
    </style>
  </defs>
  <g id="_レイヤー_1-2" data-name="レイヤー 1">
    <g>
      <path class="cls-3" d="M578.72.56c24.55-1.51,49.55.37,73.98,1.78,54.1,3.11,104.95,9.06,157.83,20.54,26.27,5.7,52.21,12.14,77.62,20.58,5.75,1.91,7.74,3.67,12.02,5.35,7.73,3.04,17.53,4.68,25.59,7.82,52.93,20.6,109.23,49.43,153.16,85.34,9.88,8.07,21.9,16.43,31.05,25.07,2.17,2.05,2.97,4.48,4.63,6.05,6.13,5.77,11.98,11.39,17.76,17.64,20.06,21.71,36.96,46.77,48.92,74.01.74,1.68,3.27,3.52,4.3,5.72,3.68,7.94,4.98,18.33,8.22,25.85.84,1.94,2.53,2.74,3.34,4.67,6.47,15.38,9.15,54.68,9.04,71.85-.53,85.94-55.35,167.11-121.96,216.74-21.3,20.3-47.82,35.93-73.61,49.98-15.97,8.7-29.24,16.54-46.29,23.86-16.2,6.95-33.02,14.35-49.75,20.4-8.28,2.99-18.24,4.84-26.11,7.96-2.81,1.11-5.22,3.69-8.28,4.41-17.37,4.09-33.48,9.51-51.5,13.31-47.99,10.11-95.2,19.11-144.63,23.06-17.38,1.39-36.15,3.1-53.45,4.01-34.33,1.8-72.53-1.23-106.88-4.01-54.76-4.43-111.61-14.53-164.66-27.74-10.53-2.62-24.19-6.2-34.47-9.62-2.63-.88-4.12-2.99-6.15-3.87-2.45-1.07-6.11-1.12-8.71-1.98-19.05-6.28-37.2-14.26-55.58-21.91-12.53-5.22-28.24-10.06-39.65-17.13-1.83-1.13-3.04-3.35-4.87-4.48-9.92-6.14-24.24-11.7-34.77-18.01-27.07-16.22-50.82-35.74-74.71-56.23-13.18-11.3-25.92-25.82-37.41-39.42C30,493.34,2.51,434.91.28,383.52c-1.97-45.35,6.4-84.36,26.39-124.65,14.72-29.67,32.08-49.96,53.81-74.46,25.35-28.59,62.14-55.72,95.07-75.95,13.53-8.31,30.69-18.19,45.06-25.08,19.12-9.17,39.5-17.88,59.44-26.07,8.26-3.39,19.48-5.28,27.28-8.8,1.9-.86,2.53-2.49,4.14-3.21,10.01-4.43,25.98-5.44,36.24-9.86,10.53-4.53,19.42-5.49,30.61-8.14C446.14,11.26,509.08,4.84,578.72.56ZM597.42,11.24c-86.87,2.8-172.69,12.82-255.75,37.53-18.23,5.42-34.94,11.6-52.58,18.24-27.21,10.23-53.8,21.63-79.24,35.67-18,9.94-38.21,21.28-55.17,33.01-2.89,2-6.06,5.49-9.18,7.52-1.72,1.12-4.09,1.37-5.56,2.46-1.57,1.16-2.44,3.83-4,5.36-2.06,2.02-5.52,3.24-7.71,4.99-2.41,1.92-4.07,4.93-6.01,6.68-2.19,1.98-5.69,3.38-8,5.36-16.64,14.27-30.84,30.26-44.79,46.73-20.57,24.28-37.75,57.15-47.56,87.39-8.12,25.04-11.91,47.65-10.91,74.66,1.67,38.26,14.55,75.34,33.55,108.08,15.59,26.87,33.36,48.37,55.7,69.9,18.66,17.99,38.67,34.8,60.21,49.35,11.81,7.97,24.31,14.91,36.07,22.72,4.37,2.9,11.51,4.59,16.06,7.32,2.22,1.33,3.5,3.66,5.74,4.95,6.49,3.73,18.17,8.71,25.4,12.01,25.04,11.47,51.35,20.52,77.46,29.43,38.21,13.04,76.21,23.04,116.32,28.65,4.4.62,8.43,2.48,12.86,3.18,5.06.8,10.3.32,15.2.83,4.14.43,8.08,2.42,12.18,3.19,17.63,3.29,36.85,3.56,54.7,4.76,78.66,5.24,156.07,3.14,233.33-11.19,26.87-4.99,50.92-8.16,77.3-16.23,11.75-3.6,25.85-5.69,36.99-9.78,2.39-.88,3.48-2.96,6.14-3.89,13.13-4.56,26.44-8.57,39.39-13.38,14.42-5.36,28.32-11.56,42.08-18.04,5.18-2.44,17.19-6.96,20.97-9.76,1.6-1.19,1.99-2.85,3.52-3.83,3.28-2.09,10.23-3.85,14.07-5.98,2.82-1.56,5.23-4.38,7.62-5.74,20.15-11.52,36.37-21.07,54.41-35.78,8.3-6.77,17.94-13.36,26.04-20.06,13.62-11.26,28.56-29.7,40.43-43.07,11.17-12.58,22.22-29.11,30.17-43.98,8.05-15.05,13.36-31.86,20.85-46.63,3.77-7.44,8.43-39.05,9.08-48.38,1.44-20.67-1.2-61.81-8.34-81.17-.82-2.21-3.1-3.9-4.02-6-1.98-4.48-2.78-11.41-5.07-16.31-9.58-20.42-20.39-43.19-34.69-60.85-9.78-12.07-21.47-25.34-32.39-36.42-9.97-10.11-20.66-19.3-31.72-28.41-10.14-8.36-21.07-17.54-32.1-24.01-5.7-3.35-10.71-7.35-16.06-10.66-33.64-20.83-69.12-38.21-105.81-53.19-8.72-3.56-19.48-5.44-27.75-9-4.7-2.02-4.66-2.99-10.59-4.77-47.8-14.35-92.18-24.16-141.31-32.38-38.6-6.46-77.35-7.11-116.3-10.63l-31.23-.44Z"/>
      <path class="cls-1" d="M597.42,11.24l31.23.44c38.95,3.52,77.7,4.17,116.3,10.63,49.13,8.22,93.52,18.04,141.31,32.38,5.93,1.78,5.9,2.75,10.59,4.77,8.27,3.56,19.03,5.44,27.75,9,36.69,14.99,72.17,32.36,105.81,53.19,5.35,3.32,10.36,7.32,16.06,10.66,11.03,6.48,21.96,15.65,32.1,24.01,11.06,9.11,21.75,18.3,31.72,28.41,10.92,11.08,22.61,24.35,32.39,36.42,14.3,17.65,25.11,40.42,34.69,60.85,2.29,4.89,3.09,11.83,5.07,16.31.93,2.1,3.21,3.78,4.02,6,7.13,19.36,9.78,60.49,8.34,81.17-.65,9.33-5.3,40.94-9.08,48.38-7.49,14.76-12.8,31.57-20.85,46.63-7.95,14.87-19.01,31.4-30.17,43.98-11.88,13.38-26.81,31.81-40.43,43.07-8.1,6.7-17.74,13.28-26.04,20.06-18.03,14.71-34.26,24.26-54.41,35.78-2.39,1.36-4.8,4.18-7.62,5.74-3.83,2.12-10.78,3.89-14.07,5.98-1.53.97-1.92,2.64-3.52,3.83-3.78,2.8-15.79,7.32-20.97,9.76-13.76,6.48-27.66,12.68-42.08,18.04-12.95,4.82-26.26,8.83-39.39,13.38-2.65.92-3.75,3.01-6.14,3.89-11.14,4.09-25.24,6.18-36.99,9.78-26.38,8.07-50.43,11.25-77.3,16.23-77.26,14.34-154.68,16.44-233.33,11.19-17.85-1.19-37.08-1.47-54.7-4.76-4.1-.76-8.04-2.76-12.18-3.19-4.9-.51-10.14-.04-15.2-.83-4.43-.7-8.46-2.56-12.86-3.18-40.11-5.61-78.11-15.62-116.32-28.65-26.11-8.91-52.42-17.97-77.46-29.43-7.22-3.31-18.91-8.28-25.4-12.01-2.24-1.29-3.52-3.62-5.74-4.95-4.55-2.73-11.69-4.42-16.06-7.32-11.76-7.81-24.26-14.74-36.07-22.72-21.54-14.55-41.55-31.36-60.21-49.35-22.33-21.53-40.11-43.03-55.7-69.9-18.99-32.74-31.88-69.82-33.55-108.08-1-27.01,2.78-49.62,10.91-74.66,9.81-30.24,26.99-63.11,47.56-87.39,13.95-16.47,28.16-32.46,44.79-46.73,2.31-1.98,5.81-3.38,8-5.36,1.94-1.75,3.61-4.76,6.01-6.68,2.19-1.75,5.64-2.97,7.71-4.99,1.56-1.52,2.43-4.2,4-5.36,1.47-1.08,3.83-1.34,5.56-2.46,3.12-2.03,6.29-5.52,9.18-7.52,16.96-11.73,37.17-23.08,55.17-33.01,25.43-14.04,52.03-25.44,79.24-35.67,17.64-6.63,34.35-12.81,52.58-18.24,83.05-24.72,168.87-34.74,255.75-37.53ZM576.71,28.61c-80.91,2.1-160.57,15.02-237.55,38.36-66.56,20.18-130.3,50.41-186.49,90.76-49.15,35.29-92.63,90.33-113.09,147.45-19.91,55.59-4.87,128.78,26.76,176.63,14.62,22.13,25.57,38.29,45.19,56.35,11.54,10.62,21.72,21.79,34.38,31.09,29.87,21.95,61.56,42.45,95.12,58.53,28.99,13.9,60.11,26.9,90.78,36.15,8.47,2.55,16.78,5.67,25.24,8.17,28.62,8.44,61,14.16,90.54,19.02,7.58,1.25,13.16,3.26,20.12,4.6,6.24,1.21,12.97.78,19.29,1.42,25.92,2.65,52.91,6.63,78.81,7.37,37.46,1.08,72.58-.6,109.6-4.03,21.09-1.95,42.62-2.48,63.09-7.06,13.23-2.95,26.9-3.64,40.27-5.83,34.31-5.61,70.89-15.12,103.93-25.67,14.78-4.72,28.96-11.34,43.26-16.86,6.41-2.48,12.54-5.15,18.8-7.92,50.11-22.19,102.52-52.04,142.2-90.29,14.04-13.53,27.71-27.87,38.93-43.91,14.92-21.32,24.63-37.8,34.54-62.33,45.04-111.58-17.98-216.7-106.62-282.22-44.6-32.96-94.83-58.42-146.92-77.55-74.74-27.45-148.88-43.37-228.81-49.11-34.43-2.47-66.64-4.04-101.36-3.14Z"/>
      <path class="cls-3" d="M576.71,28.61c34.72-.9,66.92.67,101.36,3.14,79.93,5.73,154.06,21.66,228.81,49.11,52.09,19.13,102.32,44.59,146.92,77.55,88.65,65.51,151.67,170.64,106.62,282.22-9.91,24.54-19.61,41.01-34.54,62.33-11.23,16.04-24.89,30.37-38.93,43.91-39.68,38.25-92.09,68.1-142.2,90.29-6.25,2.77-12.39,5.45-18.8,7.92-14.3,5.52-28.49,12.14-43.26,16.86-33.05,10.56-69.62,20.06-103.93,25.67-13.37,2.19-27.04,2.88-40.27,5.83-20.47,4.57-42,5.1-63.09,7.06-37.02,3.42-72.13,5.1-109.6,4.03-25.9-.74-52.89-4.73-78.81-7.37-6.32-.65-13.05-.22-19.29-1.42-6.96-1.34-12.54-3.35-20.12-4.6-29.54-4.86-61.92-10.58-90.54-19.02-8.46-2.49-16.77-5.61-25.24-8.17-30.68-9.25-61.79-22.26-90.78-36.15-33.56-16.09-65.26-36.58-95.12-58.53-12.66-9.3-22.84-20.47-34.38-31.09-19.63-18.06-30.57-34.22-45.19-56.35-31.63-47.86-46.67-121.05-26.76-176.63,20.46-57.12,63.95-112.16,113.09-147.45,56.19-40.35,119.93-70.57,186.49-90.76,76.98-23.34,156.64-36.26,237.55-38.36ZM588.07,34.63c-120.37,2.22-240.25,25.45-348.16,77.39-68.82,33.13-132.17,79.89-171.32,146.68-4.43,7.56-8.72,14.87-12.48,22.93-41.08,88.08-9.58,195.59,64.81,254.5,39.57,31.33,75.38,38.65,125.61,37.46,25.97-.62,42.14-4.64,65.09-15.74,5.68-2.75,12.46-5.77,17.83-8.89,9.47-5.49,15.3-12.46,27.29-13.47,191.15-.51,381.96,1.41,573.22.69,48.2-.18,97.27-1.95,145.64-1.4,4.45.05,8.66,1.83,13.26-.03,11.47-4.64,30.96-33.02,38.35-43.82,9.03-13.2,20.47-30.99,26.33-45.82,17.66-44.69,20.47-93.18,6.04-139.28-16.53-52.84-63.16-109.21-107.79-141.39-50.1-36.12-107.11-65.2-165.61-84.92-98.35-33.15-193.78-46.81-298.11-44.88Z"/>
      <path class="cls-1" d="M588.07,34.63c104.33-1.92,199.76,11.74,298.11,44.88,58.5,19.72,115.51,48.8,165.61,84.92,44.64,32.18,91.26,88.55,107.79,141.39,14.43,46.11,11.62,94.59-6.04,139.28-5.86,14.83-17.31,32.62-26.33,45.82-7.39,10.81-26.87,39.18-38.35,43.82-4.61,1.86-8.82.08-13.26.03-48.37-.55-97.44,1.22-145.64,1.4-191.26.72-382.07-1.2-573.22-.69-11.99,1-17.82,7.98-27.29,13.47-5.37,3.12-12.15,6.14-17.83,8.89-22.96,11.11-39.12,15.13-65.09,15.74-50.23,1.19-86.04-6.13-125.61-37.46-74.39-58.91-105.88-166.42-64.81-254.5,3.76-8.06,8.04-15.37,12.48-22.93,39.16-66.79,102.5-113.55,171.32-146.68,107.91-51.95,227.8-75.17,348.16-77.39ZM656.27,101.82c.75-.48,4.48-10.71,5.29-12.41,1.95-4.14,3.27-6.02,5.14-10.89.76-1.97,3.37-4.27,2.73-6.7-1.48-5.58-8.35-.3-12.02-.66-2.72-.27-7.65-3.85-9.37-6.05-2.72-3.49-3.67-9.5-8.89-10.51-6.63-1.28-12.83,7.4-16.86,5.54-3.47-2.6-11.9-10.36-15.75-10.97-7.43-1.18-10.93,3.62-16.11,7.19-10.11,6.98-8.64,1.99-17.14-1.34-9.06-3.55-7.85,1.54-11.51,6.75-.62.88-5.74,6.63-6.35,7.01-6.72,4.24-11.93-.6-16.99.38-5.34,1.02,1.41,8.29,2.19,9.84,3.08,6.15,5.4,15.06,8.7,20.69,1.02,1.73,1.86,2.9,3.94,1.7,13.18-7.76,25.43-16.59,41.25-17.56,13.11-.8,27.41-.14,39.38,5.45,5.58,2.61,12.8,9.02,18.41,11.65,1.26.59,2.47,1.34,3.96.89ZM610.25,97.89c.89-.77-4.51-5.62-5.62-6.06-1.69-.67-10.42-2.34-11.07-.27-.88,2.77,6.19,3.22,8.15,3.86,2.97.96,5.25,3.09,8.54,2.48ZM580.01,96.04c-5.58,1.17-17.45,9.06-22.08,12.66-24.23,18.86-33.57,48.88-30.51,79.05,1.18,11.65,5.01,30.34,11.08,40.36.59.97,5.74,7.26,6.46,7.58,2.82,1.23,8.72-1.22,12.2-1.49,27.09-2.14,35.88,15.16,58.27,22.54,11.21,3.7,18.53,3.39,28.59-2.49,12.06-7.05,23.69-23.15,28.69-36.12,10.34-26.81,8.56-59.34-3.53-85.29-5.72-12.27-17.41-23.56-29.05-30.41-1.06-.63-8.83-4.02-9.46-3.86-4.23,1.1,3.15,4.03,3.62,4.36,3.67,2.58,8.5,5.97,11.99,8.72,9.36,7.35,15.51,16.2,19.76,27,3.32,8.45,5.05,13.92,6.44,22.96.53,3.46,3.36,13.32,2.24,15.78-2.08,4.56-11.85,2.03-16.05,1.98-3.04-.04-7.04-.09-9.99-.03-7.94.18-2.16,6.32-1.68,11.09.43,4.23.16,17.39-1.99,20.71-.9,1.38-2.84,2.48-3.91,4.11-2.21,3.37-1.82,6.91-7.78,6.91-3.96,0-11.42-.28-15.34-.71-1.39-.15-2.44-1.41-4-1.3-6.7.47-13.32,2.15-20.8,1.37-6.74-.7-10.94-.43-17.99-.03-2.75.16-11.25,2.33-12.26-1.15-.95-3.29,3.59-6.8,5.14-9.97,2.53-5.18,2.83-14.86,2.04-20.56-.13-.91-2.91-9.07-3.23-9.46-1.6-1.97-4.27-.3-6.37-.26-6.5.13-13.07-.03-19.41-.04-12.88-.01-12.05-2.53-9.36-14.04,3.13-13.41,4.41-21.85,11.57-33.86,6.74-11.3,24.47-27.4,36.61-32.87,1.76-.79,4.34-.63,5.62-1.73,2.37-2.04-4.47-1.74-5.53-1.52ZM614.63,100.57c-3.08,3.65-3.94,15.46,3.32,10.02,3.72-2.79-.61-10.78-3.32-10.02ZM591.34,103.97c-6.35,1.65,2.16,13.78,4.8,4.43-.61-1.58-2.97-4.91-4.8-4.43ZM603.41,105.35c-1.3.21-3.21,1.63-4.22,2.55-1.5,2.79,7.05,4.8,8.76,2.04,1.23-1.98-2.26-4.95-4.54-4.59ZM595.05,119.78c4.08,4.08,11.99-4.71,4.71-6.38-5.28-1.21-7.28,3.81-4.71,6.38ZM608.72,113.4c-2.92.88-2.24,6.83.56,7.24,4.37.65,5.15-3.3,4.03-6.76-.66-.95-3.52-.81-4.58-.49ZM602.71,122.09c-3.69,1.09-3.52,7.39,1.26,7.87,6.61.67,5.82-9.96-1.26-7.87ZM507.21,136.75c-2,.34-6.4,3.49-7.49,5.26-3.24,5.26-.97,16.23,2.04,21.29,1.93,3.25,4.88,4.66,7.23,7.47,1.84,2.21,6.29,12.22,9.39,11.3,2.21-.66.81-12.68-.27-15.07-1.49-3.3-8.39-9.26-10.62-12.76-1.99-3.11-3.89-10.62.91-11.57,3.2-.64,4.59.76,5.78,3.54.7,1.63,1.01,7.52,2.87,7.13,3.34-2.47,1.64-10.53-1.02-12.99-1.18-1.09-7.25-3.86-8.82-3.6ZM687.14,182.68c3.96.84,4.78-3.48,6.62-5.62,6.44-7.48,13.6-14.85,15.74-25.01,1.16-5.49-1.22-9.51-5.77-12.35-6.08-3.78-8.63-3.36-12.91,2.34-2.13,2.83-5.48,8.97-1.4,11.3,2.43-.56.77-12.23,8.67-10.68,4.45.87,3.47,9.6,1.33,12.66-1.45,2.07-3.62,2.2-5,3.68-.43.46-5.73,9.63-6.13,10.58-.88,2.13-3.02,11.85-1.15,13.1ZM638.91,177.99c.6-3.9-2.08-7.13-2.53-11.03-.58-5.07,1.37-15.76,3.41-20.5,1.12-2.61,4.45-4.28,3.78-6.68-.96-3.4-5.88-.7-8.26-.49-5.12.46-9.78-2.49-13.61,3.1-.35.51-4.48,10.82-4.61,11.42-.57,2.81-.44,10.82-.17,13.9.17,1.93,2.37,10.43,3.79,10.92,6.12-1.33,12.16,1.11,18.2-.66ZM574,138.8c-7.3,1.46-11.01,18.57-10.5,24.89.4,4.95,2.95,9.87,3.95,14.76,2.84.39,5.44-.45,8.43-.42s8.13,2.11,10.38-.93c1.37-1.86-2.15-7.45-2.55-10.23-.72-4.95,1.23-14.71,2.8-19.57.82-2.55,4.42-3.15,2.95-7.55-.75-2.25-5.57-.39-7.58-.38-2.77.02-5.17-1.11-7.87-.57ZM591.55,178.73c6.1-1.75,14.54,1.75,20.2-.85,3.8-1.74.69-3.64.04-5.7-1.07-3.45-.53-20.2.79-23.53.67-1.7,6.01-7.64,3.06-9.71-1.09-.76-13.12,1.05-15.58.54-5.85.86-7.26,6.58-8.46,11.58-2.39,9.97-.41,17.71-.05,27.68ZM710.4,176.8l-2.52.02c-1.64,6.46-1.64,10.17-7.1,14.61-3.47,2.82-12.24,7.98-14.68,11.38-1.22,1.69-5.75,10.58-5.74,12.36.03,6.3,5.18-1.32,6.37-2.38,4.39-3.92,6.9-3.59,11.4-5.97,9.72-5.15,14.9-19.57,12.27-30.01ZM497.03,177.4c-1.17.77-1,1.79-1.06,2.99-.25,4.49,3.09,16.69,5.78,20.34,3.5,4.76,10.94,5.93,15.61,9.11,1.66,1.13,6.08,7.18,7.05,6.97,3.44-.75-3.46-13.6-4.71-15.32-2.62-3.61-5.53-3.76-8.64-6.06-4.08-3.01-8.23-7.64-10.62-12.1-.71-1.32-1.57-6.31-3.4-5.93ZM619.6,181.41l-1.34.34c2.72,6.62,4.05,18.29,1.7,25.06-.91,2.63-4.45,5.05-3.69,8.66.6.69,2.56-1.39,2.95-2.05,4.24-7.21,5.74-16.53,4.24-24.84-.59-3.25-3.43-4.03-3.86-7.17ZM284.09,199.63c-12.43,1.44-14.94,13.66-30.48,10.06-6.41-1.49-10.57-3.8-17.78-4.26-26.56-1.69-56,7.56-67.74,33.19-9.82,21.43-10.93,51.74,7.65,68.98,3.64,3.38,16.75,11.64,21.41,14,5.67,2.88,12.54,4.06,18.07,6.65,2.43,1.14,4.4,3.27,6.51,4.18,3.95,1.7,9.99,2.61,14.4,4.31,24.71,9.53,42.74,21.22,52.8,46.74,2.91,7.37,3.38,20.19,2.64,28.07-1.29,13.78-18.78,32.6-30.71,38.77-14.37,7.44-25.61,8.15-41.8,7.03-13.2-.91-35.61-15.91-43.35-26.8-7.17-10.09-8.92-32.18-.38-41.71,6.36-7.09,18.49-11.71,27.55-14.54,4.06-1.27,8.81-1.49,12.52-2.85,7.08-2.59,9.76-12.45,8.66-19.32-.68-4.25-11.06-11.95-15.15-13.57-21.48-8.51-48.13.24-63.95,15.23-37.63,35.65-19.51,93.96,16.7,122.88,25.88,20.67,63.77,27.12,95.84,19.06s55-26.96,69.6-55.33c14.66-28.49,11.11-69.94-7.05-96.07-17.07-24.57-33.49-29.52-59.4-40.81-10.09-4.4-22.14-8.6-31.03-15.06-2.93-2.13-11.65-9.25-13.54-11.85-6.63-9.13-4.04-23.75,5.01-30.39,7.87-5.78,28.92-5.83,36.73.02,11.57,8.66,22.67,27.42,35.31,32.84,16.76,7.19,27.09-3.51,25.1-20.42-.94-7.97-13.57-44.49-17.98-50.83s-8.2-9.1-16.17-8.18ZM590.88,212.13c1.29,1.4,5.16-5.31,2.32-6.67-1.28-.61-1.08,1.32-1.29,2.02-.24.77-1.36,4.29-1.03,4.65ZM544.78,249.54c.19-1.24-.01-1.97-.63-3.04-.37-.63-9.85-9.33-10.77-9.94-4.36-2.91-9.26-1.58-13.76-3.6-5.54-2.49-8.76-10.61-12.22-11.84-2.06-.73-3.38-.48-3.17,1.93.27,3.11,9.94,15.86,12.82,17.82,3.91,2.66,9.57,1.93,14.23,3.14,5.41,1.41,8.36,5.36,13.49,5.54ZM661.7,250.21c3.93.98,5.04-2.17,7.41-3.61,5.84-3.55,14.89-1.65,20.62-5.44.52-.34,7.82-7.67,8.34-8.36,2.05-2.74,3.25-7.04,4.36-10.27-.62-2.89-6.31,1.46-7.34,2.62-1.28,1.45-1.81,3.76-3.39,5.29-5.25,5.07-14.01,3.86-19.27,7.46-.93.64-9.75,8.68-10.1,9.28-.62,1.07-.82,1.79-.63,3.04ZM520.07,256.23c.93,8.82,14.19,12.61,21.63,11.94,6.81-.61,11.14-2.06,18.78-1.92,2.14.04,4.06,1.88,5.65-1.09-5.03-8.2-18.48-6.37-27.05-6.29-2.21.02-4.05.86-6.64.7-4.31-.28-8.08-3.06-12.37-3.34ZM683.58,257.01c-2.24.24-5.06,2.24-8.19,2.55-7.62.74-17.3-1.95-25.22-.5-1.75.32-9.77,4.91-9.17,6.85.7,2.29,7.73.26,9.68.29,4.22.06,9.67,2.3,14.12,2.64,7.09.53,19.42-2.81,20.93-10.89-.63-1.03-1.02-1.05-2.14-.93ZM483.82,268.41c-1.25.2-7.65,2.24-8.5,2.85-1.47,1.07-1.74,3.08-2.98,4.37-3.58,3.73-5.34,2.93-6.76,9.28-2.05,9.19-.81,16.27,5.7,23.11,6.87,7.22,13.64,8.56,22.91,4.83,6.32-2.54,9.87-8.81,12.45-14.94,2.22-5.29.66-9.36-1.42-14.47-3.51-8.61-11.23-16.63-21.39-15.03ZM851.93,268.41c-21.2,3.01-25.18,37.23-5.16,44.93,11.79,4.54,23.73-2.04,27.69-13.7,4.79-14.07-6.71-33.47-22.53-31.23ZM553.47,277.61c-.14,1.01,0,1.57.62,2.38.66.87,12.37,6.03,13.78,6.26,6.58,1.06,7.13-1.81,11.63-2.98,1.04-.27,10.36-.47,11.66-.32,2.48.3,4.58,4.12,7.46.72,4.13-4.88-6.09-8.48-9.47-10.07-6.51,1.29-13.34,4.1-19.99,4.66-5.35.45-10.39-.86-15.69-.65ZM616.1,273.7c-3.47,1.44-10.07,4.98-7.71,9.41s4.5-.06,6.23-.21c1.43-.12,2.33,1.39,3.95,1.43,1.77.04,3.36-1.37,5.3-1.33,2.76.05,5.18,2.22,7.46,2.58,7.71,1.22,16.97-1.59,22.97-6.38-1.83-4.65-8.48-.12-12.95-.24-7.66-.19-17.55-4.05-25.25-5.26ZM547.93,315.82c-1.47.33-7.73,7.04-8.78,8.59-2.1,3.09-9.11,21-9.54,24.53-.84,6.82.52,12,8.23,12.8,10.2,1.06,14.13-10.45,21.45-13.84,5.67-2.62,17-3.71,12.23,5.55-4.63,8.99-14.6,19.1-20.71,27.39s-14.04,18.43-18.84,27.26c-1.46,2.69-4.25,7.99-4.53,10.88-.35,3.66,3.39,12.23,7.69,12.91,15.98,1.48,35.16-1.85,50.75.02,3.7.44,5.91,4.47,10.16,5.2,13.5,2.3,16.17-11.93,20.53-21.24.99-2.11,2.65-3.18,3.51-5.84.73-2.26,2.41-11.01,2.23-13.17-.41-4.69-6.61-9.94-11.18-8.52-12.9,4.01-16.48,18.94-30.9,21.25-3.57.57-8.66.96-10.37-3.05-2.06-4.82,2.08-5.61,4.62-8.72,6.28-7.69,11.28-17.52,17.2-25.55,6.93-9.39,18.96-20.97,23.95-30.84,3.38-6.7-.19-18.15-8.37-19.06-5.07-.56-12.25-.78-17.4-.7-9.22.15-20.09,2.86-29.21,1.21-5.89-1.07-5.37-8.7-12.71-7.05ZM1046.35,318.54c-12.87,1.38-40.63,11.24-39.27,27.54.72,8.66,10.15,11.18,17.54,10.18,13.11-1.77,22.22-21.6,37.04-11.98,5.1,3.31,6.3,12.39.84,15.8-3.27,2.04-13.17.79-17.67,1.04-9.99.55-26.65,4.6-34.74,10.68-1.43,1.08-9.81,11.24-10.19,12.52-2.32,7.74-3.2,22.01.36,29.37.64,1.31,9.11,11.16,10.5,12.22,6.26,4.78,11.56,6.3,19.35,6.71,6.3.33,12.71-.05,18.9-1.2,6.75-6.06,16.31-13.86,12.34-24.03-1.1-2.81-5.69-5.86-8.56-6.19-5.61-.66-17.55,6.6-19.99-2.66-1.36-5.15.81-7.25,4.35-10.38,6.62-5.87,14.28-11.1,23.68-9.64,7.45,1.16,6.39,8.72,6.38,14.31,0,8.3.24,16.94.03,25.42-.1,4.27-3.15,9.56,3.63,10.34,6.37.74,18.49,1.25,24.76.68,6.66-.6,14.09-4.77,11.04-12.44-3.53-4.93-12.5-10.49-13.35-16.71-1.42-10.47,2.14-24.41.58-35.38.53-7.02,1.55-16.43.71-23.37-.58-4.83-8.95-13.64-13.16-16.23-8.05-4.96-25.66-7.62-35.11-6.61ZM391.65,319.21c-11.49,1.21-30.47,7.92-36.71,18.08-7.97,12.99,3.79,20.86,16.42,19.09,9.53-1.33,16.07-10.83,24.63-14.12,8.45-3.24,17.75,5.22,14.67,14.67-2.05,6.28-6.37,3.88-10.51,4.13-13.52.81-34.16,2.77-45.11,11.74-10.77,8.81-14,28.85-7.68,41.11,7.77,15.1,18.84,19.5,35.42,19.42,2.12-.01,7.14-.48,9.3-.78,3.95-.55,11.67-7.76,13.42-11.29,3.65-7.34,3.3-19.1-6.88-19.91-4.86-.38-14.72,5.78-18.03-1.29-1.89-4.05-.36-8.11,2.59-11.13,2.43-2.49,13.18-9.93,16.36-10.37,4.51-.63,12.03-.03,12.93,5.66s-.07,15.12.01,21.37c.02,1.74.7,3.37.72,5.28.06,5.56-3.65,17.57,3.63,18.42,6.4.74,22.53,1.23,28.44-.31,6.69-1.74,8.57-6.69,6.3-13.06-1.4-3.92-3.24-3.2-5.33-5.35-1.83-1.89-5.91-7.23-6.31-9.73-1.07-6.82-.25-20.56-.07-28.04.2-8.49,2.08-19.82,1.39-28.05-1.86-22.31-31.65-27.4-49.61-25.51ZM763.73,320.52c-1.93.32-9.04,3.9-10.97,5.07-2.95,1.78-10.82,8.84-13.26,11.46-1.27,1.37-7.32,9.82-7.55,11.21-1.84,11.15,15.97,2.77,17.22,11.89-.67,8.44,3.83,40.39-1.6,45.75-3.8,3.75-13.89,5.98-14.43,13.68-.72,10.12,10.83,11.75,18.42,11.73,10.82-2.03,24.11.1,34.76-1.36,6.79-.93,9.8-10.23,6.46-15.87-2.68-4.53-14.63-6.01-15.46-11.26-1.44-9.11,1.47-20.68-.77-30.02,3.08-8.77-5-26.13,9.76-24.39,5.77.68,3.68,5.55,5.34,10.02,2.15,5.79,5.26,7.89,11.37,8.04s13.73-4.49,15.5-10.54-.33-23.84-4.5-29.22c-8.16-10.51-20.52-6.7-28.42,1.64-2.56,2.7-2.56,6.05-7.32,6.05-7.38,0-3.86-4.88-4.46-8.19-.9-4.89-5.67-6.41-10.08-5.69ZM905.4,321.89c-5.13.07-16.73-.06-20.83,1.88-5.31,2.52-7.27,10.48-4.32,15.52,3.26,5.58,12.02,7.24,15.41,11.98,2.71,3.78,4.39,10.12,6.41,14.3,8.06,16.69,16.67,33.23,23.64,50.52,1.3,3.21,4.98,13.81,4.39,16.68-.86,4.2-10.77,13.84-14.93,14.48l-558.39.12-6.37,2.31c-7.3,11.97-13.86,22.33-24.09,32.03-19.76,18.72-42.27,32.83-69.35,38.88-31.74,7.09-69.04-.71-95.62-18.89-11.92-8.15-24.79-19.76-33.07-31.73-5.44-7.87-11.62-25.86-23.25-24.55-1.43.16-8.45,2.94-9.55,3.87-6.68,5.62-3.12,18.35.74,24.68,9.99,16.39,29.33,37.74,45.75,47.78,25.65,15.69,70.66,28.25,100.44,24.36,50.55-6.61,89.26-26.31,119.86-67.2,1.9-2.54,2.44-6.38,5.85-6.85l559.73-.11c2.76-1.12,8.16-1.25,10.39-2.97,3.89-2.99,11.3-16.16,13.74-21s3.21-6.82,5.96-11.41c3.57-5.97,4.81-12.93,7.41-19.31,6.14-15.06,12.67-30.05,18-45.47,2.27-6.57,4.53-20.93,9-25.73,1.5-1.61,3.56-2.3,5.03-3.66,4.39-4.05,10.94-11.8,4.03-16.69-4.55-3.22-6.95-1.36-11.33-1.3-11.76.16-26.89-1.29-38.11-.03-8.69.98-7.55,11.4-2.29,15.65,3.82,3.09,12.64,4.87,12.67,10.73,0,1.7-2.6,10.09-3.45,11.95-.94,2.05-2.7,3.76-3.62,5.73-1.45,3.13-8.65,20.65-10.77,21.34-.39.13-.79.15-1.2.1-4.51-1.37-3.83-5.86-5.24-8.86-1.07-2.29-2.83-4.25-3.94-6.75-3.1-7.01-5.62-14.45-8.59-21.53-.1-3.52,5.05-8,7.72-10.33,1.32-1.16,3.78-1.61,4.64-3.37,1.84-3.75,1.83-12.67-2.6-14.71-6.31-2.91-22.51-2.53-29.91-2.43ZM487.83,323.19c-9.08,1.54-20.13,15.84-28.6,20.17-3.61,3.53-2.12,11.55,3.09,12.36,4.16.65,12.2-1.87,13.02,4.35,1.78,13.53-2.66,29.45-.15,43.29-1.66,8.91-14.73,8.46-15.87,15.57s2.52,11.38,9.04,12.93c13.53-1.35,31.56,2.08,44.54-.1,7.65-1.29,11.35-12.45,5.52-17.89-1.97-1.84-5.56-2.16-7.93-3.43-1.61-.86-6.79-4.63-7.1-6.26.02-16.48-.08-32.96-.04-49.45.01-5.73.36-9.96.03-16.01-.26-4.89,1.64-13.46-4.65-15.4-2.1-.64-8.61-.53-10.9-.14ZM671.57,323.22c-40.8,4.32-50.71,44.77-43.14,79.51.2.9,5.46,9.61,6.39,10.98,13.02,19,32.28,23.9,54.62,22.25,15.88-1.17,24.8-8.01,33.32-20.79,4.25-6.39,4.65-10.81-.6-16.65-4.6-5.11-9.73-6.79-16.18-3.47-2.11,1.08-3.41,3.44-5.21,4.81-7.34,5.56-23.63,8.51-31.98,5.26-5.69-2.22-9.69-5.64-10.82-11.91-.68-3.77.74-6.26,4.71-6.72,15.69-1.82,34.85,1.51,50.82.05,4.92-.45,9.78-6.55,10.83-11.21,7.54-33.51-21.35-55.43-52.77-52.1ZM855.94,323.21c-4,.59-8.28,4.07-11.52,6.52-3.77,2.86-12.06,9.21-15.07,12.32-2.51,2.59-3.22,5.7-2.49,9.23,1.91,9.29,15.01-.21,15.92,8.8,1.39,13.86-.88,30.39-.33,44.51-1.59,6.65-10.15,6.9-13.08,10.97-4.19,5.83-.56,15.02,6.51,16.21,13.08,2.2,31.47-1.18,45.11,0,5.42-1.81,8.41-6.43,7.84-12.2-.95-9.56-13.48-7.04-16.56-15.51-.05-20.39,1.36-40.95.56-61.35-.14-3.61-.31-9.91-.86-13.17-1.28-7.63-9.9-7.23-16.03-6.33ZM967.48,448.77c-4.81,1.08-5.14,10.22-8.2,14.51-1.24,1.74-8.09,7.56-8.25,8.49-.19,1.05,1.32,2.12,2.3,2.23,44.75.46,89.54-.54,134.29-.01,5.72.07,9.55,1.74,15.65-.32,12.41-4.18,9.7-24.76-3.66-25.03l-132.13.13ZM955.1,485.91c-.39-.56-.26-2.45-1.46-4.21-.89-1.31-3.97-4.08-5.64-3.66-3.5,2.39,5.79,8.25,4.97,9.34-5.28,2.32-14.53-2.79-14.72,5.71-.04,1.57.7,3.02.73,4.62.06,4.01-.74,20.93.3,23.08.27.56.88,1.02,1.47,1.2,2.69.79,11.14.1,14.59.1,2.45,0,8.63,1.57,9.56-2.45,1.97-8.48-18.13-.24-19.8-6.01-3.9-13.43,14.91-3.13,16.46-8.69,1.95-6.99-10.84-2.68-12.87-2.88-4.79-.46-5-8.18-1.24-9.23,2.73-.76,16.83,3.88,16.24-2.42-.34-3.65-7.95-3.6-8.59-4.51ZM441.74,486.17c-3.91.57-10.76,6-11.17,10.31-.94,9.98,10.17,9.14,16.36,11.58,9.42,3.71.07,12.52-7.38,7.38-1.95-1.35-3.45-4.73-6.01-4.75-3.69.56-3.55,3.75-1.67,6.42,4.19,5.94,14.12,8.4,20.05,4.02,7.58-5.59,8.71-14.77-1.36-18.05-3.65-1.19-14.59-1.25-12.42-8.37s10.04,1.27,12.25,1.85c1.37.36,4.96.66,5.47-.93,1.54-4.79-10.07-10.06-14.13-9.47ZM812.5,486.19c-2.28.2-7.82,4.18-9.34,6.03-6.23,7.57-6.06,15.83-.77,23.83,4.15,6.29,6.78,7.71,14.58,6.68,4.56-.6,12.49-6.38,10.95-11.49-1.83-6.09-9.37,4.12-12.08,5.02-10.3,3.4-13.97-15.59-6.18-22.21,5.41-4.6,9.83,3.32,14.77,4,2.09.29,4.38-.37,4.14-2.88-.36-3.79-12.51-9.29-16.07-8.97ZM510.54,486.87c-1.77.34-7.31,3.38-8.74,4.62-9.73,8.38-5.57,27.73,6.89,30.98,3.39.89,7.76,1.27,10.96-.43,1.35-.72,8.73-7.47,9.26-8.77.96-2.38.9-15.21-.25-17.45-.93-1.81-8.01-7.17-10-8.03-2.7-1.17-5.18-1.47-8.12-.91ZM850.52,486.81c-1.66.32-5.53,7.56-6.78,9.25.06,4.03-8.73,22.27-8.25,24.25.45,1.86,3.17,2.17,4.78,1.68,2.35-.72,2.4-5.72,5.16-6.87,1.4-.58,6.73-.6,8.37-.38,5.29.69,4.35,9.33,11.19,7.25,4.19-1.28-.13-4.99-.9-6.84-2.09-5.06-3-11.71-5.18-16.86-.96-2.26-5.75-11.96-8.38-11.46ZM384.95,521.29c2.16-2.14-2.45-10.99,2.67-13.03,13.27-5.3,8.31,8.95,11.5,12.88,1.58,1.94,5.74,2.31,6.59-.13.25-.73-.38-8.67-.6-9.87-.35-1.95-2.01-3.36-2.01-5.38,0-3.55,3.9-5.38,2.57-11.22-.84-3.66-8.01-7.06-11.54-7.2-2.4-.09-11.36.73-13,1.75-5.47,3.38-.68,13.09-2.01,18.7-.17,3.32-1.61,9.53-.59,12.55.68,2.02,5.07,2.28,6.41.95ZM480.49,521.29c2.51-2.51-1.11-19.43.46-24.59,1.48-4.88,12-.51,10.29-6.83-1.34-4.94-10.34-1.18-13.63-1.13s-13.1-3.41-14.24,1.11c-.12,5.8,6.6,3.23,9.28,4.53,4.94,2.41-.74,25.09,2.44,27.12,1.26.81,4.32.88,5.41-.21ZM537.44,491.05v29.39c0,2.23,7.35,2.23,7.35,0v-10.02c0-.19,1.04-1.82,1.34-2,2.88-.46,8.69-1.19,10.71,1.32,3.13,3.87-1.44,11.51,5.05,12.36,5.39.71,4.78-5.02,4.23-8.94-.36-2.6-2.76-5.72-2.6-8.04.26-3.67,4.97-4.2,2.51-10.59-3.59-9.32-18.36-6.63-26.12-6.36-.82.25-2.32,2.18-2.47,2.88ZM581.36,521.94c1.09-1.05,1.38-4.5,2.53-5.81,1.8-2.06,9.62-1.68,12.16-.84,4.61,1.53,3.01,8.74,9.73,6.69,4.51-1.37-.87-7.47-1.86-9.89-2.38-5.83-5.76-22.61-12.35-24.44-2.18-.61-6.29,5.12-7.21,6.9-2.21,4.27-4.24,14.05-6.15,19.24-.81,2.19-3.11,4.05-2.72,6.64.36,2.41,4.3,3.02,5.88,1.51ZM618.08,487.5c-2.05.6-2.94,3.65-3.15,5.56-.34,2.97-.4,27.18.33,28.4.49.82,2.21,1.37,3.2,1.22,7.62-1.15-1.05-17.41,3.51-21.27,3.79-.85,10.71,20.06,15.38,20.73,7.41,1.06,4.27-9.17,4.26-13.05,0-3.64,3.22-21.75-3.61-21.09-5.49.53.84,18-3.99,18.09-4.2.08-5.52-7.25-6.93-9.82-1.65-3-5.17-9.9-8.99-8.78ZM652.83,487.5c-3.43.72-4.67,4.4-.87,5.93,2.22.89,4.28.21,5.95.73,4.4,1.37,1.72,21.42,1.79,25.6.35,1.98,2.98,3.41,4.84,2.92,1.17-.61,2.22-1.57,2.47-2.92.65-3.46.11-11.39.04-15.38-.04-2.41-2.2-9.62,1.63-10.34,3.91-.73,9.41,2.13,8.25-4.89-1.32-3.87-10.8-.46-13.62-.42-3.09.04-7.53-1.86-10.5-1.23ZM704.31,487.57c-3.44.15-14.63.11-16.55,1.49-1.71,1.23-1.88,2.7-2.05,4.63-.28,3.06-.3,25.03.36,26.42,1.86,3.92,18.31.83,22.7,2.71,4.41-.12,5.98-5.1,1.86-7.25s-11.49,2.96-16.25-1.1c-2.22-1.9-2.45-3.77-.63-6.06,4.01-5.05,11.24.34,16.41-2.28,2.74-11.13-14.23.17-16.66-7.52-3.66-11.61,23.81,2,16.95-10.9-1.45-.86-4.46-.2-6.16-.13ZM752.06,494.23c3.89-4.12,14.41,3.53,17.75-3.27.22-1.16-1.56-3.53-2.91-3.56-3.42.85-19.38-.02-20.72,1.3-.87.86-.91,2.49-1.02,3.66-.28,3.13-.37,27.21.36,28.43,1.28,2.17,12.51,1.26,15.4,1.3,2.84.04,10.52,2.17,9.68-3.61-1.1-7.53-20.38,2.67-19.86-7.29s16.62-.3,17.2-6.82c.55-6.14-9.9-2.18-12.36-2.33-3.42-.21-5.89-5.31-3.53-7.82ZM890.04,487.57c-3.15.13-12.54.11-14.25,1.78-2.84,2.77-.99,6.03-.94,9.02.09,6.44-.69,13.14-.58,19.42.08,4.46,4.6,5.96,7.57,2.99,1.8-3.7-2.43-9.91,1.67-13.02,3.66-2.78,6.85.87,10.31.33s3.33-5.62.17-6.87-13.4,5.1-12.01-5.65c1.76-5.22,18.77,2.08,16.8-5.72-.87-3.46-6.17-2.39-8.73-2.28ZM928.09,506.59c1.14-1.1.7-3.21-.54-4.14-3.7-2.79-15.28,3.35-14-6.01.98-7.18,16.43,1.61,16.79-5.38.3-6.03-7.52-3.15-11.07-2.98-2.75.13-6.06-.4-8.67.01-7.28,1.14-3.62,12.35-3.66,17-.02,3.2-2.16,14.56.21,16.43,1.32,1.04,5.59.88,6.46-.51,1.69-2.67-.5-6.71-.02-9.87,1.08-7.14,11.43-1.59,14.5-4.55ZM417.01,488.15c-4.92.89-2.53,7.07-2.47,10.22.13,7.29-.82,14.56-.35,21.73,1.22,2.77,7.11,3.12,7.65-.34-.7-8.67,1.01-18.92.03-27.38-.32-2.74-1.84-4.77-4.86-4.23Z"/>
      <path class="cls-2" d="M284.09,199.63c7.97-.92,11.77,1.86,16.17,8.18s17.04,42.87,17.98,50.83c1.99,16.92-8.33,27.61-25.1,20.42-12.64-5.42-23.74-24.18-35.31-32.84-7.8-5.84-28.85-5.8-36.73-.02-9.05,6.65-11.64,21.26-5.01,30.39,1.89,2.6,10.61,9.72,13.54,11.85,8.89,6.47,20.94,10.67,31.03,15.06,25.91,11.29,42.32,16.24,59.4,40.81,18.15,26.13,21.7,67.58,7.05,96.07-14.6,28.37-38.54,47.53-69.6,55.33s-69.96,1.61-95.84-19.06c-36.21-28.92-54.33-87.24-16.7-122.88,15.82-14.99,42.47-23.73,63.95-15.23,4.09,1.62,14.48,9.32,15.15,13.57,1.1,6.87-1.59,16.73-8.66,19.32-3.71,1.36-8.46,1.58-12.52,2.85-9.06,2.83-21.19,7.45-27.55,14.54-8.55,9.53-6.8,31.62.38,41.71,7.74,10.89,30.15,25.88,43.35,26.8,16.19,1.12,27.43.41,41.8-7.03,11.92-6.17,29.42-24.99,30.71-38.77.74-7.87.26-20.69-2.64-28.07-10.06-25.52-28.09-37.21-52.8-46.74-4.41-1.7-10.45-2.61-14.4-4.31-2.11-.91-4.08-3.04-6.51-4.18-5.53-2.59-12.4-3.77-18.07-6.65-4.66-2.36-17.76-10.62-21.41-14-18.59-17.24-17.47-47.55-7.65-68.98,11.74-25.64,41.18-34.88,67.74-33.19,7.22.46,11.37,2.78,17.78,4.26,15.54,3.6,18.05-8.62,30.48-10.06Z"/>
      <path class="cls-2" d="M905.4,321.89c7.4-.1,23.6-.48,29.91,2.43,4.43,2.04,4.43,10.95,2.6,14.71-.87,1.77-3.32,2.21-4.64,3.37-2.66,2.33-7.82,6.81-7.72,10.33,2.97,7.08,5.49,14.52,8.59,21.53,1.11,2.5,2.87,4.46,3.94,6.75,1.41,3,.73,7.48,5.24,8.86.41.05.81.03,1.2-.1,2.12-.69,9.31-18.21,10.77-21.34.92-1.98,2.68-3.68,3.62-5.73.85-1.86,3.46-10.25,3.45-11.95-.03-5.85-8.85-7.64-12.67-10.73-5.26-4.25-6.4-14.67,2.29-15.65,11.22-1.26,26.34.18,38.11.03,4.39-.06,6.79-1.92,11.33,1.3,6.91,4.9.36,12.64-4.03,16.69-1.47,1.36-3.53,2.05-5.03,3.66-4.47,4.8-6.73,19.17-9,25.73-5.33,15.42-11.86,30.41-18,45.47-2.6,6.39-3.84,13.35-7.41,19.31-2.75,4.59-3.6,6.73-5.96,11.41s-9.85,18.01-13.74,21c-2.23,1.72-7.63,1.85-10.39,2.97l-559.73.11c-3.4.47-3.94,4.3-5.85,6.85-30.6,40.89-69.31,60.59-119.86,67.2-29.77,3.89-74.78-8.67-100.44-24.36-16.42-10.04-35.76-31.39-45.75-47.78-3.86-6.33-7.42-19.06-.74-24.68,1.1-.93,8.12-3.71,9.55-3.87,11.63-1.31,17.81,16.68,23.25,24.55,8.27,11.97,21.15,23.58,33.07,31.73,26.58,18.18,63.88,25.98,95.62,18.89,27.08-6.05,49.59-20.16,69.35-38.88,10.23-9.69,16.79-20.06,24.09-32.03l6.37-2.31,558.39-.12c4.15-.64,14.06-10.28,14.93-14.48.59-2.87-3.1-13.47-4.39-16.68-6.97-17.29-15.58-33.83-23.64-50.52-2.02-4.18-3.7-10.52-6.41-14.3-3.39-4.73-12.15-6.4-15.41-11.98-2.95-5.04-1-13.01,4.32-15.52,4.1-1.94,15.7-1.81,20.83-1.88Z"/>
      <path class="cls-2" d="M391.65,319.21c17.96-1.89,47.75,3.2,49.61,25.51.69,8.24-1.19,19.56-1.39,28.05-.18,7.48-.99,21.23.07,28.04.39,2.5,4.47,7.84,6.31,9.73,2.09,2.15,3.94,1.44,5.33,5.35,2.27,6.37.39,11.32-6.3,13.06-5.92,1.54-22.05,1.05-28.44.31-7.28-.84-3.57-12.86-3.63-18.42-.02-1.91-.7-3.54-.72-5.28-.08-6.24.89-15.64-.01-21.37s-8.42-6.29-12.93-5.66c-3.17.44-13.93,7.88-16.36,10.37-2.95,3.02-4.48,7.08-2.59,11.13,3.3,7.07,13.17.91,18.03,1.29,10.18.81,10.53,12.57,6.88,19.91-1.76,3.53-9.48,10.74-13.42,11.29-2.15.3-7.18.77-9.3.78-16.58.08-27.65-4.32-35.42-19.42-6.31-12.27-3.09-32.3,7.68-41.11,10.95-8.97,31.59-10.93,45.11-11.74,4.14-.25,8.46,2.16,10.51-4.13,3.08-9.44-6.22-17.91-14.67-14.67-8.56,3.29-15.09,12.78-24.63,14.12-12.64,1.77-24.39-6.11-16.42-19.09,6.24-10.16,25.21-16.87,36.71-18.08Z"/>
      <path class="cls-2" d="M1046.35,318.54c9.45-1.01,27.06,1.65,35.11,6.61,4.21,2.59,12.58,11.41,13.16,16.23.83,6.95-.18,16.35-.71,23.37,1.56,10.96-2,24.91-.58,35.38.84,6.22,9.82,11.78,13.35,16.71,3.04,7.67-4.38,11.83-11.04,12.44-6.27.57-18.39.06-24.76-.68-6.78-.79-3.73-6.08-3.63-10.34.2-8.48-.04-17.12-.03-25.42,0-5.59,1.06-13.15-6.38-14.31-9.4-1.46-17.06,3.77-23.68,9.64-3.54,3.14-5.71,5.23-4.35,10.38,2.44,9.26,14.38,2.01,19.99,2.66,2.87.34,7.46,3.38,8.56,6.19,3.97,10.16-5.58,17.97-12.34,24.03-6.18,1.15-12.6,1.53-18.9,1.2-7.79-.41-13.08-1.93-19.35-6.71-1.39-1.06-9.86-10.9-10.5-12.22-3.56-7.36-2.68-21.64-.36-29.37.38-1.28,8.76-11.45,10.19-12.52,8.1-6.08,24.75-10.14,34.74-10.68,4.5-.25,14.4,1,17.67-1.04,5.45-3.41,4.26-12.48-.84-15.8-14.82-9.62-23.93,10.2-37.04,11.98-7.39,1-16.81-1.52-17.54-10.18-1.36-16.3,26.4-26.16,39.27-27.54Z"/>
      <path class="cls-2" d="M671.57,323.22c31.42-3.33,60.31,18.59,52.77,52.1-1.05,4.66-5.92,10.76-10.83,11.21-15.97,1.47-35.13-1.87-50.82-.05-3.96.46-5.38,2.95-4.71,6.72,1.13,6.27,5.13,9.7,10.82,11.91,8.35,3.25,24.64.3,31.98-5.26,1.8-1.37,3.1-3.73,5.21-4.81,6.44-3.32,11.58-1.64,16.18,3.47,5.25,5.84,4.86,10.27.6,16.65-8.52,12.78-17.44,19.62-33.32,20.79-22.34,1.65-41.6-3.25-54.62-22.25-.94-1.37-6.2-10.08-6.39-10.98-7.57-34.74,2.34-75.19,43.14-79.51ZM668.85,349.23c-2.62.59-10.38,8.7-11.32,11.39-1.86,5.36,1.1,8.33,6.03,9.64,4.53,1.21,20.49.67,25.01-.65,10.04-2.91,9.52-19.19-2.49-20.54-3.12-.35-14.48-.48-17.23.14Z"/>
      <path class="cls-2" d="M547.93,315.82c7.34-1.65,6.82,5.98,12.71,7.05,9.11,1.65,19.99-1.05,29.21-1.21,5.14-.09,12.33.13,17.4.7,8.18.91,11.75,12.36,8.37,19.06-4.98,9.87-17.02,21.44-23.95,30.84-5.92,8.03-10.93,17.87-17.2,25.55-2.54,3.11-6.67,3.9-4.62,8.72,1.71,4.02,6.81,3.62,10.37,3.05,14.43-2.3,18.01-17.24,30.9-21.25,4.57-1.42,10.77,3.83,11.18,8.52.19,2.16-1.5,10.91-2.23,13.17-.86,2.67-2.52,3.73-3.51,5.84-4.36,9.31-7.03,23.54-20.53,21.24-4.25-.72-6.46-4.75-10.16-5.2-15.59-1.87-34.77,1.46-50.75-.02-4.3-.68-8.05-9.25-7.69-12.91.28-2.89,3.07-8.2,4.53-10.88,4.79-8.83,12.75-19.01,18.84-27.26s16.08-18.4,20.71-27.39c4.77-9.26-6.56-8.17-12.23-5.55-7.32,3.39-11.25,14.9-21.45,13.84-7.71-.8-9.07-5.98-8.23-12.8.44-3.53,7.44-21.44,9.54-24.53,1.06-1.55,7.32-8.26,8.78-8.59Z"/>
      <path class="cls-3" d="M580.01,96.04c1.06-.22,7.9-.52,5.53,1.52-1.28,1.1-3.85.94-5.62,1.73-12.14,5.46-29.87,21.56-36.61,32.87-7.16,12.01-8.44,20.45-11.57,33.86-2.68,11.51-3.52,14.03,9.36,14.04,6.34,0,12.91.16,19.41.04,2.1-.04,4.77-1.71,6.37.26.32.39,3.1,8.55,3.23,9.46.79,5.69.49,15.38-2.04,20.56-1.55,3.17-6.09,6.69-5.14,9.97,1.01,3.48,9.51,1.31,12.26,1.15,7.05-.4,11.25-.67,17.99.03,7.47.77,14.1-.91,20.8-1.37,1.56-.11,2.6,1.15,4,1.3,3.91.43,11.37.72,15.34.71,5.96,0,5.57-3.54,7.78-6.91,1.07-1.63,3.01-2.73,3.91-4.11,2.15-3.31,2.42-16.47,1.99-20.71-.48-4.78-6.26-10.92,1.68-11.09,2.95-.07,6.95,0,9.99.03,4.21.05,13.97,2.58,16.05-1.98,1.12-2.45-1.71-12.31-2.24-15.78-1.39-9.04-3.11-14.51-6.44-22.96-4.25-10.81-10.4-19.65-19.76-27-3.49-2.74-8.32-6.13-11.99-8.72-.46-.33-7.84-3.26-3.62-4.36.63-.16,8.4,3.23,9.46,3.86,11.63,6.85,23.33,18.14,29.05,30.41,12.09,25.95,13.87,58.48,3.53,85.29-5,12.97-16.62,29.07-28.69,36.12-10.06,5.88-17.37,6.18-28.59,2.49-22.39-7.38-31.18-24.69-58.27-22.54-3.48.28-9.39,2.73-12.2,1.49-.71-.31-5.87-6.61-6.46-7.58-6.07-10.02-9.9-28.71-11.08-40.36-3.06-30.17,6.28-60.19,30.51-79.05,4.63-3.6,16.5-11.49,22.08-12.66Z"/>
      <path class="cls-2" d="M763.73,320.52c4.41-.72,9.18.8,10.08,5.69.61,3.31-2.91,8.18,4.46,8.19,4.76,0,4.76-3.35,7.32-6.05,7.9-8.34,20.26-12.15,28.42-1.64,4.17,5.37,6.36,22.87,4.5,29.22s-9.27,10.69-15.5,10.54-9.22-2.25-11.37-8.04c-1.66-4.47.43-9.34-5.34-10.02-14.77-1.74-6.68,15.63-9.76,24.39,2.24,9.34-.66,20.91.77,30.02.83,5.25,12.78,6.73,15.46,11.26,3.34,5.64.33,14.94-6.46,15.87-10.64,1.46-23.94-.67-34.76,1.36-7.59.01-19.14-1.61-18.42-11.73.54-7.69,10.63-9.92,14.43-13.68,5.44-5.36.93-37.31,1.6-45.75-1.24-9.12-19.06-.74-17.22-11.89.23-1.39,6.28-9.84,7.55-11.21,2.44-2.62,10.31-9.68,13.26-11.46,1.92-1.16,9.03-4.75,10.97-5.07Z"/>
      <path class="cls-2" d="M855.94,323.21c6.14-.9,14.75-1.29,16.03,6.33.55,3.26.72,9.56.86,13.17.8,20.4-.61,40.96-.56,61.35,3.07,8.46,15.61,5.95,16.56,15.51.57,5.77-2.41,10.39-7.84,12.2-13.64-1.18-32.03,2.2-45.11,0-7.08-1.19-10.7-10.39-6.51-16.21,2.93-4.07,11.49-4.33,13.08-10.97-.55-14.12,1.71-30.66.33-44.51-.9-9.01-14,.49-15.92-8.8-.73-3.53-.02-6.64,2.49-9.23,3.01-3.11,11.3-9.46,15.07-12.32,3.24-2.45,7.52-5.93,11.52-6.52Z"/>
      <path class="cls-2" d="M487.83,323.19c2.29-.39,8.8-.51,10.9.14,6.28,1.93,4.39,10.5,4.65,15.4.32,6.06-.02,10.28-.03,16.01-.04,16.48.07,32.97.04,49.45.31,1.63,5.49,5.4,7.1,6.26,2.36,1.27,5.96,1.59,7.93,3.43,5.83,5.44,2.13,16.6-5.52,17.89-12.99,2.18-31.02-1.25-44.54.1-6.52-1.55-10.15-6.06-9.04-12.93s14.22-6.67,15.87-15.57c-2.51-13.84,1.94-29.76.15-43.29-.82-6.22-8.86-3.7-13.02-4.35-5.2-.81-6.7-8.84-3.09-12.36,8.47-4.33,19.51-18.63,28.6-20.17Z"/>
      <path class="cls-3" d="M656.27,101.82c-1.49.45-2.69-.3-3.96-.89-5.61-2.63-12.83-9.04-18.41-11.65-11.96-5.59-26.26-6.25-39.38-5.45-15.82.97-28.08,9.8-41.25,17.56-2.08,1.2-2.93.04-3.94-1.7-3.3-5.63-5.62-14.54-8.7-20.69-.78-1.56-7.52-8.82-2.19-9.84,5.06-.97,10.27,3.86,16.99-.38.61-.39,5.73-6.13,6.35-7.01,3.67-5.22,2.46-10.3,11.51-6.75,8.5,3.33,7.03,8.31,17.14,1.34,5.18-3.57,8.68-8.36,16.11-7.19,3.85.61,12.28,8.37,15.75,10.97,4.03,1.87,10.23-6.81,16.86-5.54,5.22,1.01,6.17,7.02,8.89,10.51,1.71,2.19,6.65,5.78,9.37,6.05,3.67.36,10.54-4.92,12.02.66.64,2.43-1.97,4.73-2.73,6.7-1.87,4.87-3.19,6.76-5.14,10.89-.81,1.71-4.54,11.93-5.29,12.41Z"/>
      <path class="cls-2" d="M967.48,448.77l132.13-.13c13.36.26,16.07,20.84,3.66,25.03-6.1,2.06-9.93.39-15.65.32-44.75-.52-89.54.47-134.29.01-.98-.1-2.49-1.17-2.3-2.23.17-.93,7.01-6.74,8.25-8.49,3.06-4.3,3.39-13.43,8.2-14.51Z"/>
      <path class="cls-2" d="M483.82,268.41c10.16-1.6,17.88,6.42,21.39,15.03,2.08,5.11,3.65,9.17,1.42,14.47-2.58,6.13-6.13,12.4-12.45,14.94-9.27,3.73-16.03,2.38-22.91-4.83-6.51-6.83-7.75-13.92-5.7-23.11,1.41-6.35,3.17-5.55,6.76-9.28,1.24-1.29,1.51-3.3,2.98-4.37.85-.61,7.25-2.66,8.5-2.85Z"/>
      <path class="cls-2" d="M851.93,268.41c15.82-2.25,27.32,17.15,22.53,31.23-3.97,11.66-15.91,18.24-27.69,13.7-20.01-7.7-16.03-41.92,5.16-44.93Z"/>
      <path class="cls-3" d="M591.55,178.73c-.36-9.97-2.34-17.7.05-27.68,1.2-5,2.61-10.72,8.46-11.58,2.46.52,14.49-1.3,15.58-.54,2.95,2.07-2.39,8.02-3.06,9.71-1.32,3.33-1.86,20.08-.79,23.53.64,2.07,3.76,3.96-.04,5.7-5.65,2.59-14.1-.91-20.2.85Z"/>
      <path class="cls-3" d="M574,138.8c2.7-.54,5.1.59,7.87.57,2.01-.02,6.82-1.87,7.58.38,1.48,4.4-2.13,5-2.95,7.55-1.56,4.86-3.52,14.62-2.8,19.57.4,2.78,3.93,8.38,2.55,10.23-2.25,3.04-7.34.96-10.38.93s-5.6.8-8.43.42c-1-4.89-3.55-9.8-3.95-14.76-.51-6.32,3.2-23.43,10.5-24.89Z"/>
      <path class="cls-3" d="M638.91,177.99c-6.04,1.77-12.08-.67-18.2.66-1.43-.49-3.63-8.99-3.79-10.92-.27-3.08-.4-11.09.17-13.9.12-.61,4.26-10.92,4.61-11.42,3.83-5.59,8.49-2.64,13.61-3.1,2.38-.21,7.3-2.92,8.26.49.68,2.4-2.65,4.06-3.78,6.68-2.04,4.74-3.99,15.43-3.41,20.5.45,3.9,3.13,7.13,2.53,11.03Z"/>
      <path class="cls-2" d="M537.44,491.05c.15-.69,1.65-2.63,2.47-2.88,7.76-.27,22.53-2.96,26.12,6.36,2.46,6.39-2.25,6.91-2.51,10.59-.16,2.32,2.24,5.44,2.6,8.04.55,3.93,1.17,9.66-4.23,8.94-6.49-.86-1.92-8.49-5.05-12.36-2.02-2.5-7.83-1.78-10.71-1.32-.3.18-1.34,1.82-1.34,2v10.02c0,2.23-7.35,2.23-7.35,0v-29.39ZM547.27,493.53c-2.83.62-3.62,4.07-2.86,6.56,1.53,5.01,15.88,4.92,14.29-2.87-.92-4.49-7.95-4.46-11.43-3.69Z"/>
      <path class="cls-2" d="M510.54,486.87c2.94-.56,5.43-.26,8.12.91,1.99.86,9.08,6.22,10,8.03,1.15,2.24,1.21,15.07.25,17.45-.53,1.31-7.92,8.05-9.26,8.77-3.2,1.71-7.57,1.32-10.96.43-12.46-3.26-16.62-22.6-6.89-30.98,1.43-1.23,6.97-4.28,8.74-4.62ZM512.56,492.85c-11.5,1.61-12.78,18.4-2.97,22.71,9.91,4.35,14.05-5.33,13.15-13.82-.53-4.99-5.06-9.6-10.18-8.88Z"/>
      <path class="cls-2" d="M618.08,487.5c3.82-1.12,7.34,5.78,8.99,8.78,1.41,2.57,2.72,9.9,6.93,9.82,4.83-.09-1.49-17.57,3.99-18.09,6.83-.66,3.61,17.44,3.61,21.09,0,3.87,3.14,14.11-4.26,13.05-4.67-.67-11.59-21.58-15.38-20.73-4.56,3.86,4.11,20.12-3.51,21.27-.99.15-2.7-.4-3.2-1.22-.73-1.22-.66-25.43-.33-28.4.22-1.91,1.1-4.96,3.15-5.56Z"/>
      <path class="cls-2" d="M384.95,521.29c-1.34,1.33-5.72,1.07-6.41-.95-1.02-3.02.42-9.23.59-12.55,1.33-5.61-3.47-15.32,2.01-18.7,1.65-1.02,10.61-1.84,13-1.75,3.53.14,10.7,3.54,11.54,7.2,1.34,5.84-2.56,7.67-2.57,11.22,0,2.02,1.66,3.43,2.01,5.38.22,1.2.85,9.14.6,9.87-.85,2.45-5.01,2.07-6.59.13-3.2-3.93,1.76-18.18-11.5-12.88-5.12,2.05-.51,10.89-2.67,13.03ZM397.61,501.88c.97-1.2,1.14-3.98.86-5.47-.96-5.02-16.04-5.69-13.21,3.85,1.08,3.64,10.18,4.3,12.35,1.61Z"/>
      <path class="cls-2" d="M704.31,487.57c1.7-.07,4.71-.73,6.16.13,6.85,12.91-20.61-.71-16.95,10.9,2.42,7.69,19.39-3.61,16.66,7.52-5.18,2.63-12.4-2.77-16.41,2.28-1.82,2.29-1.59,4.16.63,6.06,4.75,4.06,12.22-1.01,16.25,1.1s2.55,7.13-1.86,7.25c-4.39-1.88-20.84,1.2-22.7-2.71-.66-1.4-.64-23.36-.36-26.42.18-1.93.34-3.4,2.05-4.63,1.92-1.38,13.1-1.34,16.55-1.49Z"/>
      <path class="cls-2" d="M955.1,485.91c.64.91,8.25.86,8.59,4.51.59,6.29-13.52,1.66-16.24,2.42-3.76,1.05-3.55,8.77,1.24,9.23,2.03.19,14.82-4.12,12.87,2.88-1.55,5.56-20.36-4.74-16.46,8.69,1.67,5.77,21.77-2.47,19.8,6.01-.93,4.02-7.11,2.45-9.56,2.45-3.45,0-11.9.69-14.59-.1-.6-.18-1.2-.64-1.47-1.2-1.04-2.15-.24-19.07-.3-23.08-.02-1.6-.76-3.05-.73-4.62.2-8.5,9.45-3.4,14.72-5.71.82-1.09-8.47-6.95-4.97-9.34,1.67-.42,4.75,2.35,5.64,3.66,1.21,1.76,1.07,3.65,1.46,4.21Z"/>
      <path class="cls-2" d="M441.74,486.17c4.06-.59,15.67,4.68,14.13,9.47-.51,1.59-4.09,1.29-5.47.93-2.21-.58-10.07-9.02-12.25-1.85s8.77,7.19,12.42,8.37c10.06,3.27,8.93,12.45,1.36,18.05-5.93,4.38-15.87,1.92-20.05-4.02-1.88-2.67-2.02-5.86,1.67-6.42,2.56.02,4.07,3.4,6.01,4.75,7.45,5.15,16.79-3.67,7.38-7.38-6.19-2.44-17.3-1.61-16.36-11.58.4-4.31,7.26-9.74,11.17-10.31Z"/>
      <path class="cls-2" d="M752.06,494.23c-2.37,2.51.11,7.61,3.53,7.82,2.46.15,12.9-3.81,12.36,2.33-.58,6.52-16.67-3.46-17.2,6.82s18.76-.25,19.86,7.29c.84,5.77-6.84,3.65-9.68,3.61-2.89-.04-14.12.87-15.4-1.3-.72-1.22-.64-25.3-.36-28.43.1-1.17.14-2.8,1.02-3.66,1.34-1.32,17.3-.45,20.72-1.3,1.35.03,3.13,2.4,2.91,3.56-3.35,6.81-13.86-.85-17.75,3.27Z"/>
      <path class="cls-2" d="M581.36,521.94c-1.58,1.51-5.52.89-5.88-1.51-.39-2.59,1.92-4.45,2.72-6.64,1.91-5.19,3.94-14.96,6.15-19.24.92-1.78,5.04-7.51,7.21-6.9,6.59,1.84,9.97,18.61,12.35,24.44.99,2.42,6.37,8.52,1.86,9.89-6.73,2.05-5.13-5.17-9.73-6.69-2.53-.84-10.36-1.23-12.16.84-1.15,1.32-1.43,4.77-2.53,5.81ZM589.96,498.77c-3.01,2.58-4.36,10.96,1.2,10.64,5.71-.33,4.06-10.37-1.2-10.64Z"/>
      <path class="cls-2" d="M850.52,486.81c2.63-.5,7.42,9.2,8.38,11.46,2.18,5.15,3.09,11.8,5.18,16.86.77,1.86,5.09,5.56.9,6.84-6.84,2.09-5.9-6.55-11.19-7.25-1.64-.22-6.98-.2-8.37.38-2.76,1.15-2.81,6.16-5.16,6.87-1.6.49-4.33.18-4.78-1.68-.48-1.99,8.31-20.22,8.25-24.25,1.25-1.69,5.12-8.93,6.78-9.25ZM853.27,508.59c2.26-2.72-.16-11.05-4.08-9.79-4.13,3.7-2.95,13.44,4.08,9.79Z"/>
      <path class="cls-2" d="M812.5,486.19c3.56-.32,15.71,5.18,16.07,8.97.24,2.51-2.05,3.17-4.14,2.88-4.93-.68-9.35-8.6-14.77-4-7.79,6.62-4.11,25.61,6.18,22.21,2.71-.9,10.25-11.11,12.08-5.02,1.54,5.11-6.39,10.89-10.95,11.49-7.8,1.03-10.43-.39-14.58-6.68-5.28-8-5.46-16.26.77-23.83,1.52-1.85,7.06-5.82,9.34-6.03Z"/>
      <path class="cls-3" d="M687.14,182.68c-1.88-1.25.27-10.97,1.15-13.1.39-.95,5.69-10.11,6.13-10.58,1.38-1.48,3.55-1.61,5-3.68,2.14-3.05,3.12-11.79-1.33-12.66-7.9-1.55-6.24,10.12-8.67,10.68-4.07-2.33-.72-8.47,1.4-11.3,4.28-5.7,6.84-6.12,12.91-2.34,4.55,2.83,6.93,6.85,5.77,12.35-2.14,10.16-9.29,17.53-15.74,25.01-1.84,2.13-2.66,6.46-6.62,5.62Z"/>
      <path class="cls-3" d="M507.21,136.75c1.57-.26,7.64,2.51,8.82,3.6,2.67,2.46,4.36,10.52,1.02,12.99-1.86.39-2.17-5.5-2.87-7.13-1.2-2.78-2.58-4.18-5.78-3.54-4.8.96-2.9,8.46-.91,11.57,2.23,3.5,9.13,9.45,10.62,12.76,1.08,2.39,2.48,14.41.27,15.07-3.1.92-7.55-9.09-9.39-11.3-2.35-2.81-5.3-4.22-7.23-7.47-3.01-5.06-5.28-16.04-2.04-21.29,1.09-1.77,5.49-4.92,7.49-5.26Z"/>
      <path class="cls-2" d="M928.09,506.59c-3.07,2.96-13.42-2.59-14.5,4.55-.48,3.16,1.71,7.2.02,9.87-.88,1.39-5.15,1.54-6.46.51-2.37-1.87-.23-13.23-.21-16.43.04-4.65-3.62-15.86,3.66-17,2.62-.41,5.92.12,8.67-.01,3.55-.17,11.37-3.05,11.07,2.98-.35,6.99-15.81-1.8-16.79,5.38-1.27,9.37,10.31,3.22,14,6.01,1.24.94,1.69,3.04.54,4.14Z"/>
      <path class="cls-2" d="M890.04,487.57c2.56-.11,7.85-1.17,8.73,2.28,1.97,7.8-15.04.5-16.8,5.72-1.39,10.74,8.83,4.39,12.01,5.65s3.14,6.35-.17,6.87-6.65-3.11-10.31-.33c-4.1,3.11.13,9.32-1.67,13.02-2.97,2.96-7.49,1.47-7.57-2.99-.11-6.28.67-12.98.58-19.42-.04-2.99-1.89-6.25.94-9.02,1.71-1.67,11.11-1.65,14.25-1.78Z"/>
      <path class="cls-3" d="M710.4,176.8c2.63,10.44-2.55,24.87-12.27,30.01-4.5,2.38-7.01,2.05-11.4,5.97-1.19,1.06-6.34,8.68-6.37,2.38,0-1.78,4.52-10.67,5.74-12.36,2.44-3.4,11.2-8.56,14.68-11.38,5.46-4.43,5.46-8.14,7.1-14.61l2.52-.02Z"/>
      <path class="cls-2" d="M652.83,487.5c2.97-.63,7.41,1.27,10.5,1.23,2.82-.04,12.3-3.44,13.62.42,1.15,7.02-4.35,4.16-8.25,4.89-3.83.72-1.67,7.93-1.63,10.34.07,3.99.61,11.92-.04,15.38-.25,1.35-1.31,2.31-2.47,2.92-1.86.5-4.49-.93-4.84-2.92-.07-4.19,2.61-24.24-1.79-25.6-1.68-.52-3.74.17-5.95-.73-3.8-1.53-2.56-5.21.87-5.93Z"/>
      <path class="cls-2" d="M480.49,521.29c-1.09,1.09-4.15,1.02-5.41.21-3.17-2.03,2.5-24.71-2.44-27.12-2.68-1.3-9.4,1.27-9.28-4.53,1.14-4.52,11.11-1.06,14.24-1.11s12.3-3.81,13.63,1.13c1.71,6.33-8.81,1.96-10.29,6.83-1.57,5.16,2.05,22.08-.46,24.59Z"/>
      <path class="cls-3" d="M497.03,177.4c1.84-.38,2.7,4.61,3.4,5.93,2.38,4.45,6.54,9.09,10.62,12.1,3.11,2.3,6.02,2.45,8.64,6.06,1.25,1.72,8.15,14.57,4.71,15.32-.97.21-5.38-5.84-7.05-6.97-4.67-3.17-12.11-4.34-15.61-9.11-2.68-3.65-6.02-15.85-5.78-20.34.07-1.2-.1-2.22,1.06-2.99Z"/>
      <path class="cls-3" d="M683.58,257.01c1.12-.12,1.51-.1,2.14.93-1.51,8.08-13.84,11.42-20.93,10.89-4.45-.33-9.9-2.58-14.12-2.64-1.94-.03-8.98,2-9.68-.29-.59-1.94,7.42-6.53,9.17-6.85,7.92-1.45,17.6,1.24,25.22.5,3.14-.3,5.95-2.3,8.19-2.55Z"/>
      <path class="cls-3" d="M616.1,273.7c7.7,1.2,17.6,5.06,25.25,5.26,4.47.11,11.12-4.41,12.95.24-6,4.8-15.26,7.61-22.97,6.38-2.28-.36-4.7-2.53-7.46-2.58-1.94-.04-3.52,1.38-5.3,1.33-1.61-.04-2.52-1.55-3.95-1.43-1.73.15-3.87,4.65-6.23.21s4.23-7.98,7.71-9.41Z"/>
      <path class="cls-3" d="M553.47,277.61c5.3-.2,10.34,1.1,15.69.65,6.65-.56,13.48-3.37,19.99-4.66,3.38,1.59,13.6,5.19,9.47,10.07-2.88,3.4-4.98-.43-7.46-.72-1.29-.15-10.61.04-11.66.32-4.5,1.18-5.05,4.04-11.63,2.98-1.41-.23-13.13-5.39-13.78-6.26-.61-.81-.76-1.38-.62-2.38Z"/>
      <path class="cls-3" d="M520.07,256.23c4.29.27,8.06,3.06,12.37,3.34,2.59.17,4.43-.67,6.64-.7,8.57-.08,22.02-1.91,27.05,6.29-1.59,2.96-3.51,1.13-5.65,1.09-7.63-.14-11.96,1.31-18.78,1.92-7.44.67-20.7-3.12-21.63-11.94Z"/>
      <path class="cls-3" d="M544.78,249.54c-5.13-.18-8.08-4.13-13.49-5.54-4.66-1.21-10.33-.48-14.23-3.14-2.88-1.96-12.56-14.7-12.82-17.82-.21-2.41,1.11-2.66,3.17-1.93,3.45,1.23,6.68,9.35,12.22,11.84,4.51,2.03,9.41.7,13.76,3.6.92.61,10.4,9.31,10.77,9.94.62,1.07.82,1.79.63,3.04Z"/>
      <path class="cls-3" d="M661.7,250.21c-.19-1.24.01-1.97.63-3.04.34-.59,9.16-8.64,10.1-9.28,5.25-3.6,14.01-2.38,19.27-7.46,1.58-1.53,2.11-3.84,3.39-5.29,1.02-1.16,6.71-5.51,7.34-2.62-1.12,3.23-2.31,7.53-4.36,10.27-.52.69-7.82,8.02-8.34,8.36-5.73,3.79-14.77,1.89-20.62,5.44-2.37,1.44-3.47,4.59-7.41,3.61Z"/>
      <path class="cls-2" d="M417.01,488.15c3.02-.55,4.54,1.49,4.86,4.23.98,8.46-.73,18.72-.03,27.38-.54,3.46-6.43,3.11-7.65.34-.47-7.17.49-14.44.35-21.73-.06-3.15-2.45-9.33,2.47-10.22Z"/>
      <path class="cls-3" d="M619.6,181.41c.43,3.14,3.27,3.92,3.86,7.17,1.5,8.32,0,17.63-4.24,24.84-.39.67-2.35,2.74-2.95,2.05-.76-3.61,2.78-6.03,3.69-8.66,2.35-6.77,1.02-18.44-1.7-25.06l1.34-.34Z"/>
      <path class="cls-3" d="M610.25,97.89c-3.29.61-5.57-1.51-8.54-2.48-1.96-.64-9.03-1.09-8.15-3.86.65-2.06,9.38-.39,11.07.27,1.11.44,6.52,5.29,5.62,6.06Z"/>
      <path class="cls-3" d="M614.63,100.57c2.71-.76,7.04,7.23,3.32,10.02-7.26,5.44-6.4-6.37-3.32-10.02Z"/>
      <path class="cls-3" d="M602.71,122.09c7.08-2.09,7.87,8.54,1.26,7.87-4.78-.48-4.95-6.78-1.26-7.87Z"/>
      <path class="cls-3" d="M595.05,119.78c-2.57-2.56-.57-7.59,4.71-6.38,7.28,1.67-.62,10.45-4.71,6.38Z"/>
      <path class="cls-3" d="M608.72,113.4c1.06-.32,3.92-.46,4.58.49,1.12,3.45.34,7.4-4.03,6.76-2.79-.41-3.47-6.37-.56-7.24Z"/>
      <path class="cls-3" d="M603.41,105.35c2.28-.37,5.77,2.61,4.54,4.59-1.71,2.76-10.26.75-8.76-2.04,1.01-.92,2.92-2.34,4.22-2.55Z"/>
      <path class="cls-3" d="M591.34,103.97c1.83-.47,4.2,2.85,4.8,4.43-2.64,9.34-11.15-2.79-4.8-4.43Z"/>
      <path class="cls-3" d="M590.88,212.13c-.33-.36.79-3.88,1.03-4.65.22-.7.01-2.63,1.29-2.02,2.83,1.36-1.04,8.07-2.32,6.67Z"/>
      <path class="cls-1" d="M668.85,349.23c2.75-.62,14.11-.49,17.23-.14,12.02,1.35,12.54,17.62,2.49,20.54-4.52,1.31-20.48,1.86-25.01.65-4.93-1.32-7.89-4.29-6.03-9.64.94-2.7,8.7-10.8,11.32-11.39Z"/>
      <path class="cls-1" d="M589.96,498.77c5.26.27,6.91,10.31,1.2,10.64-5.56.32-4.21-8.06-1.2-10.64Z"/>
      <path class="cls-2" d="M853.27,508.59c-7.03,3.65-8.21-6.09-4.08-9.79,3.92-1.26,6.34,7.07,4.08,9.79Z"/>
    </g>
  </g>
</svg>